# xmcd
#
# Track frame offsets: 
#        150
#        12175
#        27170
#        41092
#        68210
#        78997
#        97750
#        114247
#        138057
#        166522
#        205887
#
# Disc length: 3057 seconds
#
# Revision: 0
# Processed by: cddbd v1.5.2PL0 Copyright (c) Steve Scherf et al.
# Submitted via: ExactAudioCopy v0.99pb5
#
DISCID=780bef0b
DTITLE=Nina Simone - Spotlight On
DYEAR=1994
DGENRE=Blues - Jazz 
TTITLE0=01 Work Song
TTITLE1=02 Angel of The Morning
TTITLE2=03 Ain't Got No - I Got Life
TTITLE3=04 You Can Have Him
TTITLE4=05 Lovin' Woman
TTITLE5=06 Little Lisa Jane
TTITLE6=07 Here Comes The Sun
TTITLE7=08 My Way
TTITLE8=09 Fine And Mellow
TTITLE9=10 Nina's Blues
TTITLE10=11 Porgy
EXTD=Javelin Productions HADCD109
EXTT0=
EXTT1=
EXTT2=
EXTT3=
EXTT4=
EXTT5=
EXTT6=
EXTT7=
EXTT8=
EXTT9=
EXTT10=
PLAYORDER=
